<?xml version="1.0" encoding="utf-8"?>
<!-- Generator: Adobe Illustrator 23.0.1, SVG Export Plug-In . SVG Version: 6.00 Build 0)  -->
<svg version="1.1" id="Layer_1" xmlns="http://www.w3.org/2000/svg" xmlns:xlink="http://www.w3.org/1999/xlink" x="0px" y="0px"
	 viewBox="0 0 1041.3 554.2" style="enable-background:new 0 0 1041.3 554.2;" xml:space="preserve">
<style type="text/css">
	.st0{opacity:0.33;fill:#F1F1F1;enable-background:new    ;}
	.st1{fill:#F1F1F1;}
	.st2{fill:none;stroke:#3F3D56;stroke-width:2;stroke-miterlimit:10;}
	.st3{fill:#3F3D56;}
	.st4{fill:#45445E;}
	.st5{fill:#FF5335;}
	.st6{fill:#3E92A3;}
	.st7{opacity:0.3;fill:#3E92A3;enable-background:new    ;}
	.st8{opacity:0.33;fill:#F2F2F2;enable-background:new    ;}
	.st9{fill:none;stroke:#D4DFEC;stroke-miterlimit:10;}
	.st10{display:none;}
	.st11{display:inline;fill:url(#SVGID_1_);}
	.st12{display:inline;fill:url(#SVGID_2_);}
	.st13{display:inline;fill:#ECEFF1;}
	.st14{display:inline;fill:#3E92A3;}
	.st15{display:inline;fill:url(#SVGID_3_);}
	.st16{display:inline;fill:#FF5335;}
	.st17{display:inline;fill:url(#SVGID_4_);}
	.st18{display:inline;fill:url(#SVGID_5_);}
	.st19{display:inline;opacity:0.2;enable-background:new    ;}
	.st20{fill:#65617D;}
	.st21{opacity:0.2;enable-background:new    ;}
	.st22{opacity:0.1;enable-background:new    ;}
	.st23{fill:#D4DFEC;}
	.st24{fill:#E8EAF2;}
	.st25{opacity:0.8;fill:#FA5959;enable-background:new    ;}
	.st26{opacity:0.8;fill:#FED253;enable-background:new    ;}
	.st27{opacity:0.8;fill:#8CCF4D;enable-background:new    ;}
	.st28{opacity:0.2;fill:#3E92A3;enable-background:new    ;}
	.st29{fill:#FFFFFF;}
	.st30{fill:#F2F2F2;}
	.st31{fill:#FBBEBE;}
	.st32{fill:url(#SVGID_6_);}
	.st33{fill:#544506;}
	.st34{opacity:0.1;}
	.st35{display:none;fill:none;stroke:#3E92A3;stroke-width:2;stroke-miterlimit:10;}
</style>
<g>
	<circle class="st0" cx="274.8" cy="87.2" r="7.2"/>
	<circle class="st1" cx="232.6" cy="364.6" r="7.2"/>
	<circle class="st0" cx="54.2" cy="156.2" r="7.2"/>
	
		<rect x="98.8" y="81" transform="matrix(0.2876 -0.9578 0.9578 0.2876 -57.2602 344.6121)" class="st0" width="208.5" height="259.5"/>
	<line class="st2" x1="208.3" y1="132.1" x2="267.1" y2="155.9"/>
	<polygon class="st3" points="209.8,137 210.6,136.6 208.6,132.2 213.1,130.5 212.7,129.6 207.3,131.7 	"/>
	<polygon class="st3" points="262.6,158.3 262.3,157.4 266.8,155.7 264.7,151.4 265.6,151 268.1,156.3 	"/>
	<circle class="st3" cx="237.7" cy="144" r="5.3"/>
	<line class="st2" x1="203.8" y1="297" x2="258" y2="264"/>
	<polygon class="st3" points="208.6,298.7 208.8,297.8 204.1,296.8 205.4,292.2 204.5,292 202.9,297.6 	"/>
	<polygon class="st3" points="257.3,269.1 256.4,268.8 257.7,264.2 253,263.2 253.2,262.3 258.9,263.5 	"/>
	<circle class="st3" cx="230.9" cy="280.5" r="5.3"/>
	<line class="st2" x1="135.6" y1="192.4" x2="135.7" y2="255.9"/>
	<polygon class="st3" points="131.7,195.6 132.4,196.3 135.6,192.8 138.9,196.3 139.6,195.6 135.6,191.3 	"/>
	<polygon class="st3" points="131.7,252.7 132.4,252 135.7,255.5 138.9,252 139.6,252.7 135.7,256.9 	"/>
	<circle class="st3" cx="135.7" cy="224.1" r="5.3"/>
	<rect x="90.6" y="63.1" class="st4" width="88.4" height="109.8"/>
	<path class="st5" d="M129.3,104h-20.1c-1.4-7.9-1.4-16,0-23.9h20.1C127,87.9,127,96.2,129.3,104z"/>
	<path class="st6" d="M140.3,116.1h20.1c1.4-7.9,1.4-16,0-23.9h-20.1C142.6,100,142.6,108.3,140.3,116.1z"/>
	<path class="st6" d="M121.4,156h20.1c1.4-7.9,1.4-16,0-23.9h-20.1C123.6,139.9,123.6,148.2,121.4,156z"/>
	<rect x="274.8" y="167.6" class="st4" width="88.4" height="109.8"/>
	<rect x="287.4" y="190.9" class="st6" width="63.2" height="2.9"/>
	<rect x="287.4" y="201.1" class="st6" width="63.2" height="2.9"/>
	<rect x="287.4" y="211.3" class="st6" width="63.2" height="2.9"/>
	<rect x="287.4" y="221.5" class="st6" width="63.2" height="2.9"/>
	<rect x="287.4" y="231.7" class="st6" width="63.2" height="2.9"/>
	<rect x="302.4" y="242.4" class="st5" width="33" height="11.7"/>
	<rect x="98.4" y="280.3" class="st4" width="88.4" height="109.8"/>
	<rect x="111.1" y="341.5" class="st6" width="63.2" height="2.9"/>
	<rect x="111.1" y="351.7" class="st6" width="63.2" height="2.9"/>
	<rect x="111.1" y="361.9" class="st6" width="63.2" height="2.9"/>
	<rect x="111.1" y="372.1" class="st6" width="63.2" height="2.9"/>
	<path class="st7" d="M130.5,319.4h-20.1c-1.4-7.9-1.4-16,0-23.9h20.1C128.2,303.3,128.2,311.6,130.5,319.4z"/>
	<rect x="138.8" y="297.7" class="st7" width="36.9" height="2.4"/>
	<rect x="138.8" y="306.5" class="st7" width="36.9" height="2.4"/>
	<rect x="138.8" y="315.2" class="st7" width="36.9" height="2.4"/>
	<rect x="138.8" y="324" class="st7" width="36.9" height="2.4"/>
</g>
<g id="Layer_3">
	<circle class="st5" cx="918.5" cy="198" r="18.3"/>
	
		<rect x="596.9" y="285.6" transform="matrix(0.4409 -0.8976 0.8976 0.4409 72.8407 714.7989)" class="st6" width="26.6" height="26.6"/>
	<path class="st8" d="M776.5,224.7l146.5,72c6.6,3.2,9.3,11.2,6.1,17.8L892,390c-3.2,6.6-11.2,9.3-17.8,6.1l-146.5-72
		c-6.6-3.2-9.3-11.2-6.1-17.8l37.1-75.5C761.9,224.2,769.9,221.5,776.5,224.7z"/>
	<circle class="st8" cx="716.1" cy="195.5" r="74.9"/>
	<circle class="st9" cx="730.6" cy="194.3" r="74.9"/>
	<path class="st9" d="M766.9,199.2l148.5,72.9c6.1,3,8.6,10.3,5.6,16.4l-38,77.4c-3,6.1-10.3,8.6-16.4,5.6l-148.5-72.9
		c-6.1-3-8.6-10.3-5.6-16.4l38-77.4C753.5,198.7,760.9,196.2,766.9,199.2z"/>
	<circle class="st9" cx="928.6" cy="194.6" r="18.3"/>
	
		<rect x="602.8" y="282.9" transform="matrix(0.4409 -0.8976 0.8976 0.4409 78.5976 718.5892)" class="st9" width="26.6" height="26.6"/>
	
		<rect x="676.3" y="46.3" transform="matrix(0.4409 -0.8976 0.8976 0.4409 332.0765 652.3311)" class="st6" width="26.6" height="26.6"/>
	
		<rect x="682.2" y="43.7" transform="matrix(0.4409 -0.8976 0.8976 0.4409 337.7283 656.1319)" class="st9" width="26.6" height="26.6"/>
</g>
<g id="Layer_5" class="st10">
	
		<linearGradient id="SVGID_1_" gradientUnits="userSpaceOnUse" x1="1.1667" y1="119.4529" x2="1.1667" y2="110.5008" gradientTransform="matrix(-0.8229 0.5681 -0.5681 -0.8229 497.0314 180.9159)">
		<stop  offset="0" style="stop-color:#808080;stop-opacity:0.25"/>
		<stop  offset="0.54" style="stop-color:#808080;stop-opacity:0.12"/>
		<stop  offset="1" style="stop-color:#808080;stop-opacity:0.1"/>
	</linearGradient>
	<polygon class="st11" points="426.3,95.4 440.2,85.8 436.9,80.9 435.3,82 433.6,79.6 422.8,87 424.5,89.5 422.9,90.6 	"/>
	
		<linearGradient id="SVGID_2_" gradientUnits="userSpaceOnUse" x1="146.7531" y1="241.8493" x2="146.7531" y2="197.5466" gradientTransform="matrix(-0.8229 0.5681 -0.5681 -0.8229 690.5916 204.2088)">
		<stop  offset="0" style="stop-color:#808080;stop-opacity:0.25"/>
		<stop  offset="0.54" style="stop-color:#808080;stop-opacity:0.12"/>
		<stop  offset="1" style="stop-color:#808080;stop-opacity:0.1"/>
	</linearGradient>
	<path class="st12" d="M456.6,125.4L445,108.6c-2,0.7-3.1,0.6-4.3-0.2c-1.1-0.7-1.9-1.8-2.3-2.9c-0.6-1.3-0.4-2.3,0.7-3.5
		c0.6-0.7,1.4-1.3,2.2-1.7c2.1-0.9,3.9-0.3,5.3,1.7c1.4,2,1.4,3.5,0,5.4l2.1,3.2l9.6,13.7L458,94.5c0,0-10.4-1-20-9.9l-11.1,7.7
		c0,0,5.1,14.6,1.6,21.5L456.6,125.4z"/>
	<path class="st13" d="M455.8,124.8L445,109.1c-2.7,1.2-5.9,0.1-7.1-2.6s-0.1-5.9,2.6-7.1c2.7-1.2,5.9-0.1,7.1,2.6
		c0.8,1.8,0.6,3.8-0.5,5.4l10.9,15.8l-0.7-28c0,0-10.7-1.3-20.1-10.2l-9.6,6.6c0,0,4.9,15.1,1.8,21.6L455.8,124.8z"/>
	
		<rect x="459.9" y="119.5" transform="matrix(0.8229 -0.5681 0.5681 0.8229 16.2105 292.8404)" class="st13" width="36" height="1.8"/>
	
		<rect x="426.6" y="142.5" transform="matrix(0.8229 -0.5681 0.5681 0.8229 -2.7289 278.008)" class="st13" width="36" height="1.8"/>
	
		<rect x="423.5" y="83.2" transform="matrix(0.8229 -0.5681 0.5681 0.8229 27.5756 259.2802)" class="st14" width="12.6" height="4.5"/>
	
		<linearGradient id="SVGID_3_" gradientUnits="userSpaceOnUse" x1="1.5368" y1="63.501" x2="1.5368" y2="56.6469" gradientTransform="matrix(-0.8229 0.5681 -0.5681 -0.8229 497.0314 180.9159)">
		<stop  offset="0" style="stop-color:#808080;stop-opacity:0.25"/>
		<stop  offset="0.54" style="stop-color:#808080;stop-opacity:0.12"/>
		<stop  offset="1" style="stop-color:#808080;stop-opacity:0.1"/>
	</linearGradient>
	<polygon class="st15" points="466.4,133.2 460.8,137.1 456.9,131.5 462.5,127.6 	"/>
	
		<rect x="458.4" y="129.2" transform="matrix(0.8229 -0.5681 0.5681 0.8229 6.5287 285.6648)" class="st16" width="6.3" height="6.3"/>
	
		<linearGradient id="SVGID_4_" gradientUnits="userSpaceOnUse" x1="-38.4143" y1="64.5724" x2="-38.4143" y2="56.5339" gradientTransform="matrix(-0.8229 0.5681 -0.5681 -0.8229 497.0314 180.9159)">
		<stop  offset="0" style="stop-color:#808080;stop-opacity:0.25"/>
		<stop  offset="0.54" style="stop-color:#808080;stop-opacity:0.12"/>
		<stop  offset="1" style="stop-color:#808080;stop-opacity:0.1"/>
	</linearGradient>
	<circle class="st17" cx="494.2" cy="109.3" r="4"/>
	
		<linearGradient id="SVGID_5_" gradientUnits="userSpaceOnUse" x1="42.5422" y1="64.5724" x2="42.5422" y2="56.5339" gradientTransform="matrix(-0.8229 0.5681 -0.5681 -0.8229 497.0314 180.9159)">
		<stop  offset="0" style="stop-color:#808080;stop-opacity:0.25"/>
		<stop  offset="0.54" style="stop-color:#808080;stop-opacity:0.12"/>
		<stop  offset="1" style="stop-color:#808080;stop-opacity:0.1"/>
	</linearGradient>
	<circle class="st18" cx="427.6" cy="155.2" r="4"/>
	<ellipse transform="matrix(0.982 -0.1886 0.1886 0.982 -11.7364 95.189)" class="st14" cx="494.2" cy="109.3" rx="3.6" ry="3.6"/>
	
		<ellipse transform="matrix(0.9996 -2.888700e-02 2.888700e-02 0.9996 -4.3062 12.4173)" class="st14" cx="427.6" cy="155.2" rx="3.6" ry="3.6"/>
	
		<rect x="423.4" y="85.3" transform="matrix(0.8229 -0.5681 0.5681 0.8229 26.4005 260.7154)" class="st14" width="16.2" height="5.4"/>
	
		<rect x="423.4" y="85.3" transform="matrix(0.8229 -0.5681 0.5681 0.8229 26.4005 260.7154)" class="st19" width="16.2" height="5.4"/>
</g>
<g id="Layer_4">
</g>
<g>
	<title>programming</title>
	<polygon class="st20" points="863.1,533.7 863.1,546.7 711.2,548 709.6,548.1 651.8,548.6 650.4,548.6 632.9,548.8 632.4,548.8 
		525.4,549.8 349.8,551.4 349.6,551.4 305,551.8 304.5,551.8 106.1,553.7 106.1,538.7 152.8,510.6 246.4,509.9 248.4,509.9 
		249,509.9 251,509.8 296,509.5 298,509.4 298.6,509.4 300.6,509.4 315,509.3 315.4,509.3 350.9,509 351.2,509 628.6,506.6 
		635.4,506.6 636.1,506.6 641.3,506.5 678.9,506.2 680.9,506.2 682.8,506.2 683.7,506.2 695.5,506.1 697.8,506.1 700.9,506 
		710.6,506 726.1,505.8 728.1,505.8 731.6,505.8 732.2,505.8 806.9,505.1 	"/>
	<polygon class="st21" points="863.1,533.7 863.1,546.7 711.2,548 709.6,548.1 651.8,548.6 650.4,548.6 632.9,548.8 632.4,548.8 
		525.4,549.8 349.8,551.4 349.6,551.4 305,551.8 304.5,551.8 106.1,553.7 106.1,538.7 152.8,510.6 246.4,509.9 248.4,509.9 
		249,509.9 251,509.8 296,509.5 298,509.4 298.6,509.4 300.6,509.4 315,509.3 315.4,509.3 350.9,509 351.2,509 628.6,506.6 
		635.4,506.6 636.1,506.6 641.3,506.5 678.9,506.2 680.9,506.2 682.8,506.2 683.7,506.2 695.5,506.1 697.8,506.1 700.9,506 
		710.6,506 726.1,505.8 728.1,505.8 731.6,505.8 732.2,505.8 806.9,505.1 	"/>
	<path class="st3" d="M296.1,483.7v24.5c0,2.4-1.4,4.5-3.5,5.5c-0.8,0.4-1.6,0.6-2.5,0.6l-34.9,0.7c-0.9,0-1.9-0.2-2.7-0.6
		c-2.2-1-3.6-3.2-3.6-5.6v-25.2h47.2V483.7z"/>
	<path class="st22" d="M296.1,483.7v24.5c0,2.4-1.4,4.5-3.5,5.5c-0.8,0.4-1.6,0.6-2.5,0.6l-34.9,0.7c-0.9,0-1.9-0.2-2.7-0.6
		c-2.2-1-3.6-3.2-3.6-5.6v-25.2h47.2V483.7z"/>
	<path class="st3" d="M298.1,483.7v24.5c0,2.4-1.4,4.5-3.5,5.5c-0.8,0.4-1.6,0.6-2.5,0.6l-34.9,0.7c-0.9,0-1.9-0.2-2.7-0.6
		c-2.2-1-3.6-3.2-3.6-5.6v-25.2h47.2V483.7z"/>
	<rect x="680.9" y="483.7" class="st3" width="47.2" height="31.5"/>
	<rect x="680.9" y="483.7" class="st22" width="47.2" height="31.5"/>
	<rect x="678.9" y="483.7" class="st3" width="47.2" height="31.5"/>
	<rect x="211.6" y="306.4" class="st22" width="19" height="17.1"/>
	<polygon class="st22" points="298.1,483.6 298.1,488.6 250.9,489.9 250.9,483.6 	"/>
	<path class="st20" d="M381.4,312.4v168.2c0,2.1-1.7,3.9-3.9,4l-191.6,5.1l0,0c-2.2,0-3.9-1.8-4-4V312.4c0-2.2,1.8-3.9,4-4h191.6
		C379.6,308.4,381.3,310.2,381.4,312.4z"/>
	<path class="st22" d="M185.9,308.4v181.2l0,0c-2.2,0-3.9-1.8-4-4V312.4C181.9,310.2,183.6,308.4,185.9,308.4L185.9,308.4z"/>
	<polygon class="st23" points="194.6,319.1 372.1,319.1 372.1,467.4 194.6,471.4 	"/>
	<g id="Website">
		<path class="st24" d="M211.3,337.5h146.5c0.6,0,1.2,0.7,1.2,1.6v109c0,0.9-0.5,1.6-1.2,1.6H211.3c-0.6,0-1.2-0.7-1.2-1.6V339
			C210.2,338.2,210.7,337.5,211.3,337.5z"/>
		<path class="st20" d="M359,339v5.4H210.2V339c0-0.9,0.5-1.6,1.2-1.6l0,0h146.5C358.5,337.5,359,338.2,359,339L359,339z"/>
		<ellipse class="st25" cx="212.5" cy="340.9" rx="1" ry="1.4"/>
		<ellipse class="st26" cx="215.1" cy="340.9" rx="1" ry="1.4"/>
		<ellipse class="st27" cx="217.8" cy="340.9" rx="1" ry="1.4"/>
		<path class="st28" d="M217.9,351.7H288c0.6,0,1.2,0.7,1.2,1.6v43.3c0,0.9-0.5,1.6-1.2,1.6h-70.1c-0.6,0-1.2-0.7-1.2-1.6v-43.3
			C216.8,352.4,217.3,351.7,217.9,351.7z"/>
		<path class="st29" d="M217.1,412.3h71.8c0.2,0,0.3,0.2,0.3,0.4v2.4c0,0.2-0.1,0.4-0.3,0.4h-71.8c-0.2,0-0.3-0.2-0.3-0.4v-2.4
			C216.8,412.5,216.9,412.3,217.1,412.3z"/>
		<path class="st29" d="M217.1,419.1h71.8c0.2,0,0.3,0.2,0.3,0.4v2.4c0,0.2-0.1,0.4-0.3,0.4h-71.8c-0.2,0-0.3-0.2-0.3-0.4v-2.4
			C216.8,419.2,216.9,419.1,217.1,419.1z"/>
		<path class="st29" d="M217.1,425.8h71.8c0.2,0,0.3,0.2,0.3,0.4v2.4c0,0.2-0.1,0.4-0.3,0.4h-71.8c-0.2,0-0.3-0.2-0.3-0.4v-2.4
			C216.8,426,216.9,425.8,217.1,425.8z"/>
		<path class="st29" d="M217.1,432.5h71.8c0.2,0,0.3,0.2,0.3,0.4v2.4c0,0.2-0.1,0.4-0.3,0.4h-71.8c-0.2,0-0.3-0.2-0.3-0.4v-2.4
			C216.8,432.7,216.9,432.5,217.1,432.5z"/>
		<path class="st29" d="M217.1,439.3h71.8c0.2,0,0.3,0.2,0.3,0.4v2.4c0,0.2-0.1,0.4-0.3,0.4h-71.8c-0.2,0-0.3-0.2-0.3-0.4v-2.4
			C216.8,439.4,216.9,439.3,217.1,439.3z"/>
		<path class="st29" d="M298.8,351.7h50.8c0.6,0,1.2,0.7,1.2,1.6v87.6c0,0.9-0.5,1.6-1.2,1.6h-50.8c-0.6,0-1.2-0.7-1.2-1.6v-87.6
			C297.6,352.4,298.1,351.7,298.8,351.7z"/>
		<path class="st28" d="M300.8,362.1h9c0.2,0,0.3,0.2,0.3,0.4v2.4c0,0.2-0.1,0.4-0.3,0.4h-9c-0.2,0-0.3-0.2-0.3-0.4v-2.4
			C300.6,362.3,300.7,362.1,300.8,362.1z"/>
		<path class="st24" d="M300.8,368.2h47c0.2,0,0.3,0.2,0.3,0.4v2.4c0,0.2-0.1,0.4-0.3,0.4h-47c-0.2,0-0.3-0.2-0.3-0.4v-2.4
			C300.6,368.3,300.7,368.2,300.8,368.2z"/>
		<path class="st24" d="M300.8,374.2h47c0.2,0,0.3,0.2,0.3,0.4v2.4c0,0.2-0.1,0.4-0.3,0.4h-47c-0.2,0-0.3-0.2-0.3-0.4v-2.4
			C300.6,374.4,300.7,374.2,300.8,374.2z"/>
		<path class="st28" d="M300.8,386.2h9c0.2,0,0.3,0.2,0.3,0.4v2.4c0,0.2-0.1,0.4-0.3,0.4h-9c-0.2,0-0.3-0.2-0.3-0.4v-2.4
			C300.6,386.4,300.7,386.2,300.8,386.2z"/>
		<path class="st24" d="M300.8,392.3h47c0.2,0,0.3,0.2,0.3,0.4v2.4c0,0.2-0.1,0.4-0.3,0.4h-47c-0.2,0-0.3-0.2-0.3-0.4v-2.4
			C300.6,392.4,300.7,392.3,300.8,392.3z"/>
		<path class="st24" d="M300.8,398.3h47c0.2,0,0.3,0.2,0.3,0.4v2.4c0,0.2-0.1,0.4-0.3,0.4h-47c-0.2,0-0.3-0.2-0.3-0.4v-2.4
			C300.6,398.5,300.7,398.3,300.8,398.3z"/>
		<path class="st28" d="M300.8,410.3h9c0.2,0,0.3,0.2,0.3,0.4v2.4c0,0.2-0.1,0.4-0.3,0.4h-9c-0.2,0-0.3-0.2-0.3-0.4v-2.4
			C300.6,410.5,300.7,410.3,300.8,410.3z"/>
		<path class="st24" d="M300.8,416.3h47c0.2,0,0.3,0.2,0.3,0.4v2.4c0,0.2-0.1,0.4-0.3,0.4h-47c-0.2,0-0.3-0.2-0.3-0.4v-2.4
			C300.6,416.5,300.7,416.3,300.8,416.3z"/>
		<path class="st24" d="M300.8,422.4h47c0.2,0,0.3,0.2,0.3,0.4v2.4c0,0.2-0.1,0.4-0.3,0.4h-47c-0.2,0-0.3-0.2-0.3-0.4v-2.4
			C300.6,422.5,300.7,422.4,300.8,422.4z"/>
		<path class="st6" d="M338.2,434.4h9c0.2,0,0.3,0.2,0.3,0.4v2.4c0,0.2-0.1,0.4-0.3,0.4h-9c-0.2,0-0.3-0.2-0.3-0.4v-2.4
			C337.9,434.6,338,434.4,338.2,434.4z"/>
		<path class="st6" d="M279.9,401.5h9c0.2,0,0.3,0.2,0.3,0.4v2.4c0,0.2-0.1,0.4-0.3,0.4h-9c-0.2,0-0.3-0.2-0.3-0.4v-2.4
			C279.6,401.6,279.8,401.5,279.9,401.5z"/>
		<path class="st22" d="M230.6,407.2L230.6,407.2L230.6,407.2z"/>
	</g>
	<rect x="722.9" y="306.4" class="st22" width="19" height="17.4"/>
	<polygon class="st22" points="726.1,483.6 726.1,490.1 678.9,488.8 678.9,483.6 	"/>
	<path class="st20" d="M788.3,312.4v173.3c0,2.2-1.8,4-4,4l0,0l-191.7-5.1c-2.1-0.1-3.8-1.8-3.8-4V312.4c0-2.2,1.8-3.9,3.9-4h191.6
		C786.5,308.4,788.3,310.2,788.3,312.4z"/>
	<path class="st22" d="M788.3,312.4v173.3c0,2.2-1.8,4-4,4l0,0V308.4l0,0C786.5,308.4,788.3,310.2,788.3,312.4z"/>
	<polygon class="st23" points="775.6,319.1 598.1,319.1 598.1,467.4 775.6,471.4 	"/>
	<path class="st20" d="M583.8,312.4v168.2c0,2.1-1.7,3.9-3.8,4l-191.6,5.1l0,0c-2.2,0-4-1.8-4-4V312.4c0-2.2,1.8-3.9,4-4H580
		C582.1,308.4,583.8,310.2,583.8,312.4z"/>
	<polygon class="st23" points="397.1,319.1 574.6,319.1 574.6,467.4 397.1,471.4 	"/>
	<polygon class="st22" points="863.1,533.7 863.1,546.7 711.2,548 709.6,548.1 651.8,548.6 650.4,548.6 632.9,548.8 632.4,548.8 
		525.4,549.8 349.8,551.4 349.6,551.4 305,551.8 304.5,551.8 106.1,553.7 106.1,538.7 308.6,537.3 309.1,537.3 350.1,537 350.3,537 
		633.3,535.2 633.6,535.2 633.8,535.2 634.3,535.2 639.1,535.1 640.5,535.1 715,534.6 719.4,534.6 720.4,534.6 	"/>
	<g id="Code_Editor">
		<rect x="612.2" y="333.4" class="st3" width="146.6" height="115"/>
		<path class="st30" d="M683.8,349.2h-36.2c-0.2,0-0.4-0.2-0.4-0.4c0-0.2,0.2-0.4,0.4-0.4l0,0h36.2c0.2,0,0.4,0.2,0.4,0.4
			C684.3,349,684.1,349.2,683.8,349.2z"/>
		<path class="st6" d="M723.4,354h-56.9c-0.2,0-0.4-0.2-0.4-0.4s0.2-0.4,0.4-0.4l0,0h56.9c0.2,0,0.4,0.2,0.4,0.4
			S723.7,354,723.4,354z"/>
		<path class="st30" d="M684,358.8h-36.2c-0.2,0-0.4-0.2-0.4-0.4s0.2-0.4,0.4-0.4H684c0.2,0,0.4,0.2,0.4,0.4S684.3,358.8,684,358.8z
			"/>
		<path class="st30" d="M723.4,358.9h-36.2c-0.2,0-0.4-0.2-0.4-0.4s0.2-0.4,0.4-0.4h36.2c0.2,0,0.4,0.2,0.4,0.4
			S723.7,358.9,723.4,358.9z"/>
		<path class="st30" d="M684.1,363.6h-36.2c-0.2,0-0.4-0.2-0.4-0.4s0.2-0.4,0.4-0.4h36.2c0.2,0,0.4,0.2,0.4,0.4
			S684.3,363.6,684.1,363.6z"/>
		<path class="st6" d="M684.2,368.5H648c-0.2,0-0.4-0.2-0.4-0.4s0.2-0.4,0.4-0.4h36.2c0.2,0,0.4,0.2,0.4,0.4
			S684.4,368.5,684.2,368.5z"/>
		<path class="st30" d="M700.6,349.2h-10.4c-0.2,0-0.4-0.2-0.4-0.4s0.2-0.4,0.4-0.4l0,0h10.4c0.2,0,0.4,0.2,0.4,0.4
			S700.9,349.2,700.6,349.2z"/>
		<path class="st5" d="M700.6,363.6h-10.4c-0.2,0-0.4-0.2-0.4-0.4s0.2-0.4,0.4-0.4l0,0h10.4c0.2,0,0.4,0.2,0.4,0.4
			S700.9,363.6,700.6,363.6z"/>
		<path class="st6" d="M700.6,368.4h-10.4c-0.2,0-0.4-0.2-0.4-0.4c0-0.2,0.2-0.4,0.4-0.4l0,0h10.4c0.2,0,0.4,0.2,0.4,0.4
			C701.1,368.2,700.9,368.4,700.6,368.4L700.6,368.4z"/>
		<path class="st5" d="M718,368.4h-10.4c-0.2,0-0.4-0.2-0.4-0.4c0-0.2,0.2-0.4,0.4-0.4H718c0.2,0,0.4,0.2,0.4,0.4
			C718.4,368.2,718.2,368.4,718,368.4L718,368.4z"/>
		<path class="st5" d="M657.9,354h-10.4c-0.2,0-0.4-0.2-0.4-0.4s0.2-0.4,0.4-0.4l0,0h10.4c0.2,0,0.4,0.2,0.4,0.4
			S658.2,354,657.9,354z"/>
		<path class="st30" d="M683.9,420.3h-36.2c-0.2,0-0.4-0.2-0.4-0.4s0.2-0.4,0.4-0.4l0,0h36.2c0.2,0,0.4,0.2,0.4,0.4
			S684.1,420.3,683.9,420.3z"/>
		<path class="st6" d="M683.7,429.9h-36.2c-0.2,0-0.4-0.2-0.4-0.4s0.2-0.4,0.4-0.4l0,0h36.2c0.2,0,0.4,0.2,0.4,0.4
			S684,429.9,683.7,429.9z"/>
		<path class="st30" d="M683.8,434.8h-36.2c-0.2,0-0.4-0.2-0.4-0.4s0.2-0.4,0.4-0.4l0,0h36.2c0.2,0,0.4,0.2,0.4,0.4
			S684,434.8,683.8,434.8z"/>
		<path class="st30" d="M699.3,430h-10.4c-0.2,0-0.4-0.2-0.4-0.4s0.2-0.4,0.4-0.4h10.4c0.2,0,0.4,0.2,0.4,0.4S699.5,430,699.3,430
			L699.3,430z"/>
		<path class="st5" d="M699.3,434.8h-10.4c-0.2,0-0.4-0.2-0.4-0.4s0.2-0.4,0.4-0.4h10.4c0.2,0,0.4,0.2,0.4,0.4
			S699.5,434.8,699.3,434.8L699.3,434.8z"/>
		<path class="st5" d="M716.6,430h-10.4c-0.2,0-0.4-0.2-0.4-0.4s0.2-0.4,0.4-0.4h10.4c0.2,0,0.4,0.2,0.4,0.4S716.9,430,716.6,430z"
			/>
		<path class="st30" d="M723.5,425.1h-56.9c-0.2,0-0.4-0.2-0.4-0.4c0-0.2,0.2-0.4,0.4-0.4h56.9c0.2,0,0.4,0.2,0.4,0.4
			S723.7,425.1,723.5,425.1z"/>
		<path class="st30" d="M658,425.1h-10.4c-0.2,0-0.4-0.2-0.4-0.4c0-0.2,0.2-0.4,0.4-0.4l0,0H658c0.2,0,0.4,0.2,0.4,0.4
			S658.2,425.1,658,425.1z"/>
		<path class="st6" d="M723.5,439.7h-56.9c-0.2,0-0.4-0.2-0.4-0.4s0.2-0.4,0.4-0.4h56.9c0.2,0,0.4,0.2,0.4,0.4
			S723.7,439.7,723.5,439.7L723.5,439.7z"/>
		<path class="st30" d="M658,439.7h-10.4c-0.2,0-0.4-0.2-0.4-0.4s0.2-0.4,0.4-0.4l0,0H658c0.2,0,0.4,0.2,0.4,0.4
			S658.2,439.7,658,439.7z"/>
		<polygon class="st6" points="675.1,380.1 661.1,393.9 675.1,407.8 678.3,404.6 667.7,394 678.4,383.3 		"/>
		<polygon class="st6" points="695.9,380.1 709.9,393.9 695.9,407.8 692.7,404.6 703.3,394 692.6,383.3 		"/>
		<circle class="st5" cx="616.1" cy="336.4" r="1.8"/>
		<circle class="st6" cx="620.8" cy="336.4" r="1.8"/>
		<circle class="st6" cx="625.4" cy="336.4" r="1.8"/>
		<rect x="612.2" y="339.3" class="st22" width="146.6" height="0.6"/>
	</g>
	<g id="Guy">
		<circle class="st31" cx="487.3" cy="272.2" r="51.3"/>
		
			<linearGradient id="SVGID_6_" gradientUnits="userSpaceOnUse" x1="597.6901" y1="1249.4099" x2="597.6901" y2="872.0758" gradientTransform="matrix(1 0 0 1 -79.34 -696.91)">
			<stop  offset="0" style="stop-color:#808080;stop-opacity:0.25"/>
			<stop  offset="0.54" style="stop-color:#808080;stop-opacity:0.12"/>
			<stop  offset="1" style="stop-color:#808080;stop-opacity:0.1"/>
		</linearGradient>
		<path class="st32" d="M304.4,552.2c0-0.1,0.1-0.2,0.1-0.3c1-3.6,2.8-9.7,4.1-14.5c0.2-0.6,0.3-1.2,0.5-1.8
			c1.5-5.5,4.3-18.3,5.9-26.3c0.6-2.8,1-5,1.1-6.1c0.2-1.7,3.2-8.9,6.6-17.2c2.4-5.8,5-12.2,6.9-17.6c1.3-3.2,2.2-6.5,2.9-9.8
			c0.1-0.7,0.1-1.4,0-2.1c-0.3-1.1-0.5-2.3-0.5-3.5l0,0c-0.2-6.2,1.6-16,4.5-20.1c3.5-5,6-23.7,6-23.7s5.2,0.8,6-3.5
			c0.1-0.5,0.1-0.9,0.1-1.4c0-0.4,0-0.7-0.1-1.1c-0.9-6.2,14.7-12.9,23.5-14.3c1-0.2,2-0.3,3-0.3c2.1-0.2,4.2-0.7,6.2-1.4
			c0.9-0.3,1.9-0.6,3-1c3.7-1.2,8.1-2.9,12.8-4.7c17.6-6.8,38.8-16,38.8-16c0.2-0.7,0.3-1.4,0.5-2.1c2.1-8.6,8.2-15.6,16.3-18.9l0,0
			c0-0.7,0-1.3,0-2c0-3.5-0.2-7-0.3-10.5c0-0.7-0.1-1.4-0.1-2.1c0-0.2,0-0.4,0-0.6s0-0.4,0-0.5c0-0.7-0.1-1.4-0.1-2.1l-0.2-0.1
			c-1.5-1.2-2.9-2.6-3.9-4.2c-0.6-0.9-1.1-2-1.4-3c-1.2-3.4-1.5-7.2-2.4-10.8l-0.2-0.7c-1.1-3.6-2.4-7.1-4-10.6
			c-2.2-5.4-3.9-11-5.6-16.6c-1-3.4-2.1-6.8-3.1-10.3l-1.6-5.2c-0.3-1-0.6-2-0.8-3l0,0c-0.1-0.5-0.2-0.9-0.3-1.4l0,0
			c-0.3-1.5-0.2-3.1,0.2-4.6c0.4-1,0.8-2,1.3-3c0.2-0.4,0.4-0.9,0.5-1.4l0,0c0-0.1,0.1-0.2,0.1-0.3c0.1-0.4,0.1-0.7,0.1-1.1
			c0-1.3-0.2-2.6-0.5-3.9l0,0c0-0.1,0-0.2,0-0.3c-0.2-1-0.3-2-0.4-3c-0.4-5.4,0.9-10.8,3.5-15.6l0.2-0.4c0.6-1,1.2-1.9,1.8-2.8l0,0
			c0.3-0.4,0.6-0.8,1-1.2c-1.4,1.3-3.7,0.8-5-0.7c-0.2-0.2-0.4-0.5-0.5-0.8c-0.1-0.1-0.2-0.3-0.2-0.5c0-0.1-0.1-0.2-0.1-0.4
			c-0.7-2.5,0.5-5.1,2.1-7s3.5-3.5,5.7-4.7l0,0c0.1-0.1,0.3-0.1,0.4-0.2c0.8-0.4,1.7-0.8,2.6-1.1l0,0c0.5-0.2,1.1-0.3,1.6-0.4
			l-3.7-0.3l-1.5-0.1c1.5-6.1,6.8-10.5,13-10.9h1.1c0.5,0,1.1,0.1,1.6,0.1c-1.7-0.7-2.8-2.5-2.7-4.3c2.6,2,5.9,3.1,9.2,3.1h0.4
			c-0.2-1.1-0.3-2.2-0.3-3.3l0,0l0,0l0,0c-0.1-1.5-0.1-3,0-4.5c1.8,1.7,4.3,2.5,6.8,2.3l-2.1-2.9c1.9,1.5,4.2,2.2,6.6,2h0.5
			c0.4,0,0.8-0.1,1.2-0.2h0.1c-0.2-0.2-0.4-0.5-0.5-0.8l-0.1-0.1c-0.4-0.7-0.8-1.4-1-2.1c-0.1-0.3-0.2-0.6-0.2-0.9l0,0
			c-0.4-1.8-0.3-3.7,0.5-5.5c3.2,2.7,6.8,6.4,11,3.6s4.4-7.9,11-7.4c3.7,0.4,6.9,2.7,8.4,6.1c1.9-2.2,5-2.9,7.7-1.8
			c2.6,1.2,4.2,4,3.9,6.9c2.8-0.7,5.7-1.4,8.3-0.3c2.6,1,4.3,4.4,2.8,6.7c0,0.1-0.1,0.1-0.1,0.2c-1.2,1.6-3.9,2.5-3.7,4.5l0.4,0.3
			l1.3,0.9l0,0c5.1,3.7,10.1,7.5,14.9,11.6c2.5,2.1,5.1,4.6,5.3,7.8c0,0.8-0.1,1.6-0.2,2.4l0,0c-0.2,0.8-0.4,1.6-0.5,2.3
			c-0.4,2-0.5,4-0.3,6l0,0c0.1,0.6,0.2,1.2,0.3,1.8c1.5,7.7,7.7,14.1,8.3,22v0.6c0,0.8,0,1.7-0.1,2.5c-0.5,4.8-2.7,9.4-4.5,14
			c-0.1,0.3-0.2,0.6-0.3,0.8c-3.5,9-5.5,18.6-7,28.2c-0.5,3.4-1.2,6.8-2,10.1c-0.9,3.8-2.7,7.4-5.1,10.4c-1,1.2-2.1,2.2-3.4,3
			c-0.8,0.5-1.7,1-2.7,1.4c0,0,0,0,0,0.1c0.1,0.6,0.2,1.2,0.3,1.8c0.1,0.3,0.1,0.6,0.2,1l0,0c0,0,0,0,0,0.1
			c0.8,4.7,1.8,9.4,2.8,13.8l0.5,2.2c12.6,4.5,14.1,13.9,14.2,17.4c0,0.5,0,1,0,1.4c0,0,19,0.5,26.5,6c1.4,1,2.9,1.7,4.5,2.3
			c3,1.1,6.1,2.1,9.2,2.9c1.6,0.4,3.3,0.8,5,1.2c3,0.7,6.2,1.4,9.2,2c8.2,1.7,15.9,3,19.8,4c9.3,2.4,30.7,22.8,30.7,22.8
			s2.5,20.6,5,23.7s7,13.6,7,13.6l16.5,29.4l7,12.4h4.5c0.6,0,1.8,0.9,3.2,2.1c1.2,1.1,2.5,2.4,3.7,3.6l1.9,2l1.2,1.3
			c0,0,7.3,0.2,9.2,5.9c5.9-0.2,13.2,0.2,18.3,2.5c0.7,0.3,1.4,0.7,2,1.1c2.1,1.2,3.6,3.3,4.1,5.7c0.1,0.5,0.2,1,0.2,1.4
			c0,0.6,0,1.1,0,1.7c-0.4,7.6-5.3,13.9-9.8,18.1l0.3,0.6c0,0-0.2,0.4-0.4,1c-0.1,0.2-0.2,0.4-0.3,0.6l0,0c-0.6,1.3-1.5,3.2-2.8,5.4
			c-2.6,4.8-5.8,9.2-9.6,13.2l-0.3,0.3l-57.7,0.5l-0.2-0.2l-11.2-13.4l-5.6-6.6l-0.2-0.2l-0.2,1.6l-0.5,5.3l-1.3,12.8l-0.1,0.6v0.2
			l-0.2,1.5l0.1-1.5H632l-107,1l-175.6,1.9v0.8h-0.1v-0.8l-44.8,0.5L304.4,552.2z"/>
		<path class="st31" d="M538.6,377.2c0,0-99.5,12-90,0c3.4-4.3,4.4-17.2,4.2-31.8c-0.1-4.5-0.2-9.1-0.5-13.6
			c-1.1-22-3.8-43.5-3.8-43.5s87-41,77-8.5c-4,13.1-2.7,31.6,0.3,48.9c0.9,5,1.9,10,3,14.7C531.6,354.7,534.8,366,538.6,377.2z"/>
		<path class="st22" d="M538.6,377.2c0,0-99.5,12-90,0c3.4-4.3,4.4-17.2,4.2-31.8c15.2-6.5,34.5-1.7,34.5-1.7
			c20.3-4,33.4-3.3,41.7-0.4C531.6,354.7,534.8,366,538.6,377.2z"/>
		<path class="st6" d="M349.7,552.5v-0.8l175.6-1.9l107-1h0.3l-0.1,1.5l0.2-1.5h0.2v-0.2l1.4-13.4l0.5-5.1l0.2-1.6l0.1-1.3l6.2-20.6
			l6.2-20.6l5.2-17.3l7.9-26.5c0,0-4.5-10.5-7-13.5s-5-23.5-5-23.5s-21.3-20.3-30.7-22.7c-3.9-1-11.6-2.3-19.8-4
			c-3.1-0.6-6.2-1.3-9.2-2c-1.7-0.4-3.4-0.8-5-1.2c-3.1-0.8-6.2-1.7-9.2-2.9c-1.6-0.6-3.1-1.3-4.5-2.3c-7.3-5.4-25.8-6-26.5-6l0,0
			c0,0,0,0,0-0.1l0,0c0-0.4,0-0.8,0-1.3c0-0.4,0-0.9-0.1-1.4c0-0.2,0-0.3-0.1-0.5c-0.1-0.4-0.1-0.7-0.2-1.1c0-0.2-0.1-0.4-0.1-0.5
			c-0.3-1.2-0.7-2.4-1.2-3.5c-0.1-0.2-0.2-0.3-0.2-0.5c-0.5-0.9-1.1-1.8-1.7-2.6c-0.1-0.2-0.3-0.3-0.4-0.5c-0.8-1-1.7-1.9-2.7-2.6
			c-0.3-0.2-0.5-0.4-0.8-0.6c-0.2-0.1-0.3-0.3-0.5-0.4l-0.9-0.6l-0.8-0.5c-0.7-0.4-1.5-0.8-2.3-1.2c-0.3-0.1-0.5-0.2-0.8-0.3
			s-0.7-0.3-1.1-0.4h-0.1l-0.7-0.3c-0.6-0.2-1.2-0.4-1.8-0.5l-0.9-0.2l-1-0.2l-1-0.2c-1-0.2-2.1-0.4-3.2-0.5l-1.1-0.1l-1.2-0.1
			l-1.2-0.1l-1.7-0.1l-2-0.1c-8.8,0-17.6,0.9-26.2,2.8c-6-1.3-12.1-1.9-18.3-1.7h-0.9l-1,0.1h-0.6l-1.3,0.1c-0.4,0-0.9,0.1-1.3,0.2
			s-0.9,0.1-1.3,0.2l-0.7,0.1c-0.7,0.1-1.3,0.2-2,0.4c-0.2,0-0.4,0.1-0.7,0.2c-0.9,0.2-1.7,0.4-2.6,0.7c-0.4,0.1-0.9,0.3-1.3,0.4
			c-0.2,0.1-0.4,0.1-0.6,0.2l-0.6,0.2l-0.6,0.2l-0.8,0.3c-0.4,0.2-0.8,0.3-1.1,0.5c-0.2,0.1-0.4,0.2-0.6,0.3s-0.4,0.2-0.6,0.3
			c-2.3,1.2-4.4,2.6-6.2,4.4l-0.5,0.5l-0.5,0.5c-0.2,0.2-0.3,0.3-0.5,0.5c-0.7,0.7-1.3,1.5-1.8,2.2c-0.2,0.2-0.3,0.4-0.5,0.6
			c-0.6,0.9-1.2,1.9-1.7,2.9c-0.1,0.2-0.2,0.5-0.4,0.7c-0.8,1.7-1.5,3.4-2,5.2c-0.2,0.7-0.4,1.3-0.5,2c-0.2,1-21.2,9.3-38.7,16.1
			c-4.7,1.8-9.1,3.4-12.8,4.7c-1.1,0.4-2.1,0.7-3,1c-2,0.7-4.1,1.2-6.2,1.4c-1,0-2,0.1-3,0.3c-8.1,1.3-21.9,7-23.4,12.7
			c-0.1,0.5-0.2,0.9-0.1,1.4v0.1c1,7-6,6-6,6s-2.5,18.5-6,23.5c-2.5,3.6-4.3,11.6-4.5,17.7l0,0c-0.1,1.9,0,3.8,0.4,5.6v0.1
			c0.4,1.3-0.6,5-2.2,9.7c-1.8,5.2-4.4,11.5-6.8,17.6c-3.7,9.1-7.3,17.4-7.5,19.2c-0.1,0.8-0.4,2.3-0.7,4.1
			c-1.5,7.6-4.7,22.1-6.3,28c-1.2,4.4-2.9,10.4-4.1,14.5c0,0.1-0.1,0.2-0.1,0.3l44.8-0.4L349.7,552.5L349.7,552.5L349.7,552.5z"/>
		<path class="st22" d="M366.1,434.7c0,0,57,29.5,77.5,26L366.1,434.7z"/>
		<path class="st22" d="M482.1,422.7c0,0,55.5,18,74,20.5S482.1,422.7,482.1,422.7z"/>
		<path class="st22" d="M543.7,364.7c-29,5.3-83.6,4.2-107.2,3.4c8.7-31,50.8-20.5,50.8-20.5C539.5,337.2,543.5,358.9,543.7,364.7z"
			/>
		<path class="st6" d="M543.7,362.7c-29,5.3-83.6,4.2-107.2,3.4c8.7-31,50.8-20.5,50.8-20.5C539.5,335.2,543.5,356.9,543.7,362.7z"
			/>
		<path class="st31" d="M697.6,499.4c0,0,34.2-5.2,34.8,9.8c0.7,15-17.4,25.5-17.4,25.5L697.6,499.4z"/>
		<path class="st22" d="M525.9,328.5c-1.5,0.7-3,1.2-4.5,1.7c-10.8,3.7-21.6,7.5-33,8.8c-11.3,1.4-23.3,0.2-33.2-5.5
			c-1-0.6-2-1.2-3-2c-1.1-22-3.8-43.5-3.8-43.5s87-41,77-8.5C521.6,292.8,522.9,311.2,525.9,328.5z"/>
		<path class="st33" d="M473.2,191.9c-2.9,0.8-6,0.1-8.3-1.8l2.1,2.9c-2.5,0.3-5-0.5-6.8-2.2c-0.2,2.6-0.1,5.2,0.3,7.8
			c-3.4,0.2-6.8-0.9-9.6-3c-0.1,1.8,0.9,3.6,2.6,4.3c-7.2-0.9-13.8,3.7-15.6,10.7l5.2,0.5c-4.1,0.9-7.8,3.1-10.4,6.4
			c-1.6,2-2.8,4.6-2.1,7s4.1,4,5.9,2.3c-5.3,6.3-7.5,14.7-6.1,22.8c0.5,1.7,0.6,3.5,0.5,5.3c-0.3,1.6-1.4,3.1-1.9,4.7
			c-1,2.9,0,6.1,0.8,9l4.7,15.4c1.7,5.6,3.4,11.1,5.6,16.5c1.6,3.4,2.9,6.9,4,10.5c1.3,4.8,1.3,10.1,4,14.4c1.8,2.7,4.3,4.8,7.2,6.3
			c9.9,5.7,21.8,6.9,33.2,5.5s22.2-5.1,33-8.8c2.4-0.7,4.7-1.7,6.8-3c7.5-4.9,9.1-14.9,10.5-23.6c1.6-9.8,3.6-19.6,7.3-28.8
			c2.2-5.5,5-11.1,4.5-16.9c-0.6-7.8-6.8-14.1-8.3-21.8c-0.5-2.6-0.5-5.2,0.1-7.8c0.5-1.5,0.7-3.1,0.8-4.7c-0.2-3.2-2.8-5.7-5.3-7.8
			c-5.4-4.5-10.9-8.7-16.7-12.7c-0.3-2,2.4-2.9,3.7-4.4c1.7-2.2-0.1-5.8-2.7-6.8s-5.6-0.4-8.3,0.3c0.5-3.6-2.1-6.9-5.7-7.4
			c-2.2-0.3-4.4,0.6-5.8,2.3c-1.5-3.4-4.7-5.7-8.4-6.1c-6.6-0.5-6.8,4.5-11,7.3s-7.7-0.9-11-3.6
			C470.6,185.8,471.1,189.3,473.2,191.9z"/>
		<path class="st6" d="M722.9,529.4c0,0-0.9,2.1-2.5,5.2c-2.5,4.7-5.5,9.1-9,13.2l-0.3,0.3h-1.6l-57.7,0.5h-1.4l-0.2-0.2L639,535.1
			l-4.2-5l-0.2-0.2l-0.4-0.4l-0.2-0.2l-0.3-0.3l-8.2-9.7l3-12.5l5.1-21.1l0.1-0.5l1-4l0.7-3l2.4-9.8l8.2-33.7l14.5,7.5l15.3,27
			l8.2,14.5h4.5c0.8,0,2.8,1.6,4.8,3.5c0.7,0.7,1.4,1.4,2,2c1.8,1.8,3.2,3.4,3.2,3.4s7.3,0.2,9.2,5.9c0.1,0.3,0.2,0.6,0.2,0.8
			c0.7,2.3,1.5,4.5,2.5,6.6c1.3,2.8,2.9,6,4.5,9.2c3.1,5.8,6.2,11.4,7.3,13.4l0.1,0.2L722.9,529.4z"/>
		<g class="st34">
			<path d="M473.6,188.6c-1-1.3-1.6-2.8-1.9-4.3c-0.2,1.5-0.1,3.1,0.4,4.6C472.6,188.9,473.1,188.8,473.6,188.6z"/>
			<path d="M460.9,195.3c-0.2-1.2-0.3-2.5-0.4-3.7c0,1.2,0,2.5,0,3.7H460.9z"/>
			<path d="M542.4,228.7c0.1-0.9,0.2-1.8,0.4-2.6c0.5-1.5,0.7-3.1,0.8-4.7c0-0.4-0.1-0.7-0.2-1.1c-0.2,0.9-0.4,1.8-0.6,2.8
				C542.4,224.9,542.2,226.8,542.4,228.7z"/>
			<path d="M521.6,197.8l1.1,0.8c0.9-0.7,1.8-1.4,2.6-2.2c0.8-1.1,0.9-2.4,0.4-3.6c-0.1,0.2-0.2,0.4-0.4,0.6
				C524,194.9,521.3,195.8,521.6,197.8z"/>
			<path d="M439.4,207.4c-0.4,0.7-0.7,1.5-0.9,2.3c1.6-0.9,3.2-1.5,5-1.9L439.4,207.4z"/>
			<path d="M453.2,196.5c-0.7-0.4-1.3-0.8-1.9-1.2c0,0.4,0,0.8,0.1,1.2C452,196.4,452.6,196.4,453.2,196.5z"/>
			<path d="M551,255.4c-0.4,4.9-2.7,9.5-4.5,14.1c-3.7,9.2-5.7,19-7.3,28.8c-1.4,8.8-3,18.8-10.5,23.6c-2.1,1.3-4.4,2.3-6.8,3
				c-10.8,3.7-21.6,7.5-33,8.8s-23.3,0.2-33.2-5.5c-2.9-1.5-5.3-3.7-7.2-6.3c-2.7-4.2-2.7-9.5-4-14.4c-1.1-3.6-2.4-7.1-4-10.5
				c-2.2-5.4-3.9-11-5.6-16.5c-1.6-5.1-3.1-10.3-4.7-15.4c-0.5-1.5-0.9-3.1-1.1-4.8c-0.4,2.6,0.4,5.2,1.1,7.8
				c1.6,5.2,3.1,10.3,4.7,15.4c1.7,5.6,3.4,11.1,5.6,16.5c1.6,3.4,2.9,6.9,4,10.5c1.3,4.8,1.3,10.1,4,14.4c1.8,2.7,4.3,4.8,7.2,6.3
				c9.9,5.7,21.8,6.9,33.2,5.5s22.2-5.1,33-8.8c2.4-0.7,4.7-1.7,6.8-3c7.4-4.9,9.1-14.9,10.5-23.6c1.5-9.8,3.6-19.6,7.3-28.8
				c2.2-5.5,5-11,4.5-16.9C551,255.5,551,255.5,551,255.4z"/>
			<path d="M431.3,251.5v-0.1c0.2-1.8,0-3.5-0.5-5.2c-0.2-1.1-0.3-2.2-0.4-3.3c-0.1,2.1,0,4.2,0.4,6.3
				C431,250,431.2,250.8,431.3,251.5z"/>
			<path d="M434.3,227.1c0.8-1.3,1.6-2.5,2.6-3.7c-1.8,1.8-5.2,0.2-5.9-2.2c-0.3,1-0.3,2,0,3C431.5,225.7,432.8,226.8,434.3,227.1z"
				/>
		</g>
	</g>
	<path class="st22" d="M637,484.3l-0.1,1.4v0.1l-0.2,2.3l-1.3,18.5l-1.6,22.3l-0.5,6.3l-1,13.4v0.2l-107,1l-175.6,1.9v0.8h-0.1v-0.8
		v-0.3l0.5-14.4l0.9-28.1l0.7-23.8l0.1-2.4c0.2-5.8,5-10.4,10.8-10.2c0.2,0,0.4,0,0.6,0c4.7,0.4,10.9,0.9,18.2,1.4l3,0.2
		c42.3,2.9,120.6,6.7,199.5,2c1.7-0.1,3.3-0.2,5-0.3c12.2-0.8,24.5-1.8,36.6-3c5.8-0.6,11,3.6,11.6,9.4
		C637.1,483,637.1,483.6,637,484.3L637,484.3z"/>
	<path class="st3" d="M349.7,552.5v-0.8l175.6-1.9l107-1h0.3v-0.2l1-13.4l0.4-6l1.6-22.6l1.3-17.9v-0.4c0.1-0.8,0-1.7-0.1-2.5v-0.1
		c-0.3-1.7-1-3.3-2-4.6c-2.2-2.9-5.8-4.4-9.4-4c-12.1,1.2-24.3,2.2-36.6,3c-1.7,0.1-3.3,0.2-5,0.3c-78.9,4.7-157.2,0.9-199.5-2
		l-3-0.2c-7.3-0.5-13.5-1-18.2-1.4c-5.4-0.5-10.2,3.2-11.2,8.5c-0.1,0.5-0.2,1.1-0.2,1.6l-0.7,22.2l-0.9,28.1l-0.4,14.4v0.3V552.5
		L349.7,552.5z"/>
	<path class="st22" d="M637.3,491.3l-1.2,15.3l-1.8,22.8l-0.5,5.7l-1,12.8l-0.1,0.6v0.2l0,0l-0.2,1.5l0.1-1.5h-0.3l-107,1
		l-175.6,1.9v-0.3l0.5-14.4l1-28.1l0.6-18.7c0.1-2.2,1.2-4.1,3.1-5.2c1.1-0.7,2.5-1,3.8-0.9c2.1,0.2,4.7,0.4,7.7,0.6
		c4.9,0.4,10.9,0.8,17.9,1.2c13,0.8,29.3,1.7,48,2.4c52,2,122.2,2.7,188.9-3.2c3-0.3,6.1-0.5,9.1-0.8c1.2-0.1,2.4,0.1,3.5,0.7
		c0.3,0.2,0.6,0.3,0.9,0.5c0.9,0.6,1.6,1.5,2,2.5c0.1,0.2,0.2,0.4,0.2,0.6C637.3,489.5,637.4,490.4,637.3,491.3z"/>
	<path class="st22" d="M298.1,505v3.2c0,2.4-1.4,4.5-3.5,5.5l-40.1,0.8c-2.2-1-3.6-3.2-3.6-5.6v-3L298.1,505z"/>
	<polygon class="st3" points="298.6,515.6 246.4,516.6 246.4,507.9 298.6,506.9 	"/>
	<polygon class="st22" points="298.6,515.6 246.4,516.6 246.4,507.9 298.6,506.9 	"/>
	<polygon class="st3" points="300.6,515.6 248.4,516.6 248.4,507.9 300.6,506.9 	"/>
	<path class="st22" d="M684.1,483.7c0,0,3.2,11.5,0,21.5C680.9,515.2,684.1,483.7,684.1,483.7z"/>
	<path class="st22" d="M697.6,495.4c0,0,1.3,14.6-1.7,17.2C692.9,515.2,697.6,495.4,697.6,495.4z"/>
	<line class="st35" x1="199" y1="342.9" x2="300.6" y2="341.9"/>
	<line class="st35" x1="199" y1="355.3" x2="300.6" y2="354.3"/>
	<line class="st35" x1="199" y1="367.8" x2="300.6" y2="366.8"/>
</g>
</svg>
